<?xml version="1.0" standalone="no"?>
<!DOCTYPE svg PUBLIC "-//W3C//DTD SVG 20010904//EN"
 "http://www.w3.org/TR/2001/REC-SVG-20010904/DTD/svg10.dtd">
<svg version="1.0" xmlns="http://www.w3.org/2000/svg"
 width="500.000000pt" height="500.000000pt" viewBox="0 0 500.000000 500.000000"
 preserveAspectRatio="xMidYMid meet">
<metadata>
Created by potrace 1.16, written by Peter Selinger 2001-2019
</metadata>
<g transform="translate(0.000000,500.000000) scale(0.100000,-0.100000)"
fill="#000000" stroke="none">
<path d="M2435 3948 c-66 -39 -194 -113 -285 -165 -91 -52 -175 -105 -187
-119 -21 -23 -23 -34 -23 -157 l0 -133 56 -32 c31 -18 60 -30 65 -26 5 3 9 63
9 133 0 119 1 129 23 148 40 37 461 276 487 276 25 0 445 -237 488 -276 22
-20 22 -23 22 -308 0 -272 -1 -289 -19 -306 -39 -36 -466 -276 -491 -276 -25
0 -446 238 -487 276 -21 18 -23 30 -23 113 l0 93 -55 31 c-30 17 -59 29 -65
25 -6 -4 -10 -65 -10 -155 0 -140 1 -150 23 -174 31 -34 588 -356 617 -356 21
0 572 313 613 348 16 14 17 45 17 387 l0 372 -305 176 c-167 98 -314 177 -327
176 -13 0 -77 -32 -143 -71z"/>
<path d="M2477 3714 c-88 -51 -88 -55 -11 -98 44 -24 46 -25 80 -9 32 16 36
16 69 0 19 -9 53 -28 75 -42 34 -21 39 -29 30 -41 -20 -23 -116 -74 -140 -74
-12 0 -81 34 -152 75 -71 41 -134 75 -139 75 -16 0 -102 -51 -116 -68 -18 -22
-18 -461 0 -484 23 -29 381 -231 408 -230 14 0 113 52 220 114 l194 113 3 174
c1 96 -1 178 -6 183 -5 5 -26 0 -48 -13 -75 -43 -74 -41 -74 -159 0 -74 -4
-111 -12 -118 -31 -24 -263 -152 -278 -152 -16 0 -254 132 -278 154 -9 9 -12
54 -10 178 l3 166 135 -79 c83 -49 143 -78 156 -76 12 2 100 50 197 106 182
106 197 121 160 153 -41 35 -340 198 -363 198 -14 0 -61 -21 -103 -46z"/>
<path d="M1286 2209 c-26 -20 -26 -21 -26 -160 l0 -139 30 0 30 0 0 65 0 65
100 0 100 0 0 -65 c0 -63 1 -65 25 -65 18 0 25 5 25 20 0 20 0 20 29 -1 26
-19 39 -21 138 -17 74 2 115 7 126 17 14 11 17 34 17 127 l0 114 65 0 65 0 0
-130 0 -130 30 0 30 0 0 130 0 130 65 0 65 0 0 -107 c0 -60 4 -113 8 -119 16
-25 56 -34 150 -34 85 0 103 3 126 21 25 20 26 23 26 139 0 116 -1 119 -26
139 -23 18 -41 21 -126 21 -94 0 -134 -9 -150 -34 -5 -6 -8 -1 -8 12 l0 22
-185 0 -185 0 0 -130 0 -130 -100 0 -100 0 0 130 0 130 -30 0 c-24 0 -30 -4
-30 -22 0 -13 -3 -18 -8 -12 -16 25 -56 34 -150 34 -85 0 -103 -3 -126 -21z
m234 -74 l0 -35 -100 0 -100 0 0 35 0 35 100 0 100 0 0 -35z m930 -65 l0 -100
-100 0 -100 0 0 100 0 100 100 0 100 0 0 -100z"/>
<path d="M2650 2070 l0 -160 25 0 c24 0 25 2 25 65 l0 65 108 0 c95 0 111 2
130 20 l22 21 0 -86 0 -85 30 0 30 0 0 65 0 65 100 0 100 0 0 -65 0 -65 55 0
55 0 0 65 c0 60 2 65 22 65 13 0 48 -26 89 -65 57 -55 72 -65 103 -65 33 0 36
2 36 30 0 26 -4 30 -28 30 -19 0 -39 11 -62 35 l-34 35 40 0 c62 0 84 21 84
81 l0 49 65 0 65 0 0 -130 0 -130 30 0 30 0 0 130 0 130 65 0 65 0 0 30 0 30
-155 0 c-152 0 -155 0 -155 -22 0 -21 0 -21 -21 -2 -18 16 -40 19 -160 22
l-139 4 0 -24 c0 -13 -3 -18 -8 -12 -16 25 -56 34 -150 34 -85 0 -103 -3 -126
-21 l-26 -20 -26 20 c-24 19 -40 21 -155 21 l-129 0 0 -160z m250 65 l0 -35
-100 0 -100 0 0 35 0 35 100 0 100 0 0 -35z m320 0 l0 -35 -100 0 -100 0 0 35
0 35 100 0 100 0 0 -35z m310 0 l0 -35 -100 0 -100 0 0 35 0 35 100 0 100 0 0
-35z"/>
<path d="M1665 1726 c-24 -24 -25 -30 -25 -161 l0 -135 30 0 30 0 0 65 0 65
125 0 125 0 0 30 0 30 -125 0 -125 0 0 35 0 35 190 0 190 0 0 -100 0 -100 -60
0 -60 0 0 -30 0 -30 180 0 180 0 0 105 c0 58 3 105 7 105 4 0 54 -47 112 -104
l106 -103 145 -2 c135 -2 148 -1 173 19 l27 21 26 -20 c24 -19 40 -21 185 -21
l159 0 0 65 c0 60 2 65 22 65 13 0 48 -26 89 -65 57 -55 72 -65 103 -65 33 0
36 2 36 30 0 26 -4 30 -28 30 -19 0 -39 11 -62 35 l-34 35 41 0 c24 0 50 7 62
18 19 15 22 25 19 82 -4 91 2 90 -309 90 -244 0 -258 -1 -283 -21 l-26 -20
-26 20 c-24 19 -40 21 -185 21 l-159 0 0 -107 0 -107 -108 106 -107 106 -308
2 -307 1 -25 -25z m605 -136 l0 -100 -65 0 -65 0 0 100 0 100 65 0 65 0 0
-100z m560 0 l0 -100 -100 0 -100 0 0 100 0 100 100 0 100 0 0 -100z m370 65
l0 -35 -125 0 -125 0 0 35 0 35 125 0 125 0 0 -35z m260 0 l0 -35 -100 0 -100
0 0 35 0 35 100 0 100 0 0 -35z m-260 -130 l0 -35 -125 0 -125 0 0 35 0 35
125 0 125 0 0 -35z"/>
</g>
</svg>
